<?xml version="1.0" encoding="UTF-8"?>
<svg width="512" height="512" viewBox="0 0 512 512" xmlns="http://www.w3.org/2000/svg" version="1.1">
  <g style="fill: var(--icon-fill, #fff); touch-action: none;">
    <path d="M383.98,142.78c16.93-3.88,45.57,2.16,63.83-.3l8.32,8.9.36,292.55c-.11,5.19-3.81,10.22-8.98,11.38-7.4,1.65-52.49,1.54-60.65.25-4.15-.65-9.41-4.2-10.23-8.56l-.11-292.88c-.17-5.36,1.89-10.06,7.46-11.34Z"/>
    <path d="M279.05,189.75c7.88-1.77,50.13-1.43,59.04-.19,5.6.79,10.07,3,11.55,8.81l.37,245.57c-.36,6.65-4.26,10.21-10.59,11.34-9.35,1.67-49.58,1.78-59.05.29-4.16-.66-8.02-3.55-9.94-7.28l-.4-248.76c-.13-4.45,4.94-8.85,9.02-9.77Z"/>
    <path d="M172.56,238.3c7.94-1.78,50.07-1.44,59.04-.19,5.91.82,10.05,2.91,11.21,9.15l.72,195.11c-.88,5.47-2.51,10.39-8.11,12.25-6.09,2.03-53.88,2.14-61.53.93-5.59-.88-9.91-5.36-11.16-10.77l-.67-191.95c.23-6.21,4.12-13.12,10.51-14.55Z"/>
    <path d="M133.42,288.52c2.12,2.12,3.63,8.07,3.66,11.23l-.85,146.55c-1.28,5.5-5.55,8.47-11.08,9.25-7.9,1.1-54.11,1.28-60.27-.6-4.58-1.4-9.39-7.64-9.35-12.58l.81-148.08c1.45-6.25,6.33-8.7,12.51-9.39,12.2-1.36,42.68-1.36,54.88,0,2.6.29,7.97,1.88,9.7,3.61Z"/>
    <path d="M452.83,63.06c7.29,7.85-3.28,27.19-8.6,35.05-7.04,10.41-19.4,9.73-22.25-2.65L71.25,265.45c-14.23,3.98-22.19-14.12-8.96-21.53L409.33,74.08c-1.94-6.77-2.37-14.86,5.25-18.17,5.1-2.22,34.46,3.07,38.25,7.15Z"/>
  </g>
</svg>