<?xml version="1.0" encoding="UTF-8"?>
<svg width="512" height="512" viewBox="0 0 512 512" xmlns="http://www.w3.org/2000/svg" version="1.1">
  <g style="fill: var(--icon-fill, #fff); touch-action: none;">
    <path d="M159.73,480.2h-19.25c-5.78-1.33-11.7-1.76-17.51-3.06-41.96-9.39-76.58-43.66-87.27-85.2l-3.75-20.33c.35-6.29-.47-13.04,0-19.27,1.76-23.16,12.16-48.45,27.16-66.1,25.64-30.17,60.51-58.25,88.1-87l3.77-1.91c-3.77,21.9-1.5,44.52,4.81,65.71-16.3,17.86-36.15,34.05-52.09,52.06-58.24,65.8,27.08,151.32,92.81,93.74,21.05-18.44,49.59-47.33,68.28-68.3,19.88-22.31,26.49-49.8,12.71-77.57-6.61-13.31-21.33-21.82-23.14-37.28-1.8-15.46,2.89-29.81,15.94-38.74,47.9,22.3,72.95,73.16,65.11,125.28-2.89,19.21-13.79,42.91-26.43,57.63-24.61,28.66-57.4,55.1-83.18,83.16-17.88,14.7-42.82,25.42-66.05,27.18Z"/>
    <path d="M371.53,31.8c5.78,1.32,11.7,1.78,17.51,3.06,41.86,9.22,77.22,44.37,87.45,85.9l3.57,19.64c-.34,6.3.47,13.04,0,19.27-1.8,23.8-12.43,47.66-27.16,66.1-28.06,25.41-53.46,57.22-81.78,81.93-1.11.97-9.36,7.59-10.09,6.98,4.23-21.97,1.03-44.45-4.25-65.92,15.84-18.08,35.74-33.92,51.53-51.84,58.33-66.22-27.51-151.6-93.25-93.32-21.11,18.71-50.08,47.6-68.7,68.75s-24.31,46.24-13.51,72.24c8.95,21.54,30.31,28.33,24.65,56.26-2.01,9.91-7.42,17.89-15.18,24.21-69.95-31.77-88.33-124.43-39.27-182.91,46.42-39.51,82.56-105.26,149.23-110.34h19.25Z"/>
    <path d="M105.25,94.18c4.56-.72,7.07.38,10.65,2.94,3.23,2.3,18.5,17.44,20.58,20.57,7.78,11.68-2.81,25.45-16.17,19.68-4.4-1.9-22.71-20.03-24.63-24.4-3.51-7.99.83-17.4,9.57-18.79Z"/>
    <path d="M385.97,372.96c3.25,0,6.16,1.14,8.75,3.03,3.38,2.46,18.19,17.36,20.43,20.72,8.1,12.2-4.24,25.81-16.79,19.43-3.69-1.87-21.88-19.97-23.67-23.61-4.43-9.07,1.04-19.58,11.29-19.57Z"/>
    <path d="M198.88,39.89c8.05-1.47,13.15,2.95,15.75,10.1,1.84,5.06,6.57,21.42,7.05,26.29,1.38,13.77-16.61,20.85-24.18,9.24-1.95-2.99-8.15-25.61-8.67-29.86-.87-7.17,2.4-14.38,10.04-15.77Z"/>
    <path d="M431.71,290.34c1.54-.22,2.41-.14,3.9.02,5.13.55,20.29,4.97,25.57,6.85,3.63,1.29,6.32,2.2,8.54,5.47,6.59,9.7-.59,21.4-11.96,20.76-4.57-.26-22.95-5.45-27.79-7.26-14.14-5.27-11.19-24,1.74-25.84Z"/>
    <path d="M50.09,188.77c2.31-.42,4.29-.26,6.58.02,3.83.47,25.93,6.44,28.63,8.13,6.45,4.01,8.12,12.42,3.91,18.73-3.54,5.3-7.89,5.96-13.95,5.32-3.86-.41-26.49-6.58-29.27-8.37-9.71-6.25-7.03-21.79,4.1-23.83Z"/>
    <path d="M300.4,420.85c5.5-1.14,11.71,1.07,14.61,5.99,1.89,3.21,7.58,24.36,8.15,28.62,2.25,16.87-16.92,22.6-24.15,10.16-1.76-3.03-8.33-27.81-8.4-31.39-.1-5.83,3.82-12.14,9.78-13.38Z"/>
  </g>
</svg>