<?xml version="1.0" encoding="UTF-8"?>
<svg width="512" height="512" viewBox="0 0 512 512" xmlns="http://www.w3.org/2000/svg" version="1.1">
  <g style="fill: var(--icon-fill, #fff); touch-action: none;">
    <path d="M85.76,212.37c50.52-5.14,108.41,3.23,159.69-.28,29.04,2.67,52.11,25.23,54.5,54.5,4.11,50.38-3.07,106.08.05,157.02-2.24,30.38-25.57,52.62-55.55,55.45-50.32-2.57-104.11,3.47-154.03.06-30.83-2.11-54.9-24.41-57.44-55.56-4.11-50.27,2.93-106.02.11-156.86,2.8-28.17,24.15-51.43,52.66-54.34ZM108.7,271.32c-25.25,4.29-21.3,46.76,9.53,41.52,24.55-4.17,20.57-46.64-9.53-41.52ZM214.71,271.32c-21.36,3.67-21.36,39.27,1.75,41.76,33.92,3.65,31.57-47.49-1.75-41.76ZM151.33,360.72c20.51,20.51,50.8-11.93,29.69-31.19-20.13-18.36-49.26,11.62-29.69,31.19ZM112.73,377.34c-28.96,1.13-26.67,45.55,2.74,42.74,27.13-2.6,23.5-43.76-2.74-42.74ZM219.63,377.47c-29.28.48-26.81,45.46,2.84,42.61,25.43-2.44,24.55-43.07-2.84-42.61Z"/>
    <path d="M182.97,191.08l41.98-117.52c12.17-34.47,42.59-48.77,77.53-38.5,49.68,14.6,100.86,37.85,149.79,55.21,25.78,16.14,33.18,42.71,24.73,71.34-11.71,39.68-30.11,85.85-45.02,124.98-7.73,20.3-12.93,36.57-34.04,46.96-27.77,13.68-50.17.88-76.84-7.62-1.97-39.04,8.12-75.72-19.63-107.87-9.85-11.42-34.83-26.99-50.01-26.99h-68.5ZM289.71,96.32c-5.16.89-11.26,5.7-13.77,10.22-11.34,20.42,12.53,40.88,30.97,27.97,18.25-12.78,6.57-42.31-17.2-38.2ZM311.33,200.72c20.33,20.33,50.38-11.46,30.19-30.69-20.17-19.21-49.95,10.92-30.19,30.69ZM356.76,232.29c-27.42,2.43-24.68,45.21,3.71,42.81,28.03-2.37,24.11-45.27-3.71-42.81Z"/>
  </g>
</svg>
