<?xml version="1.0" encoding="UTF-8"?>
<svg width="512" height="512" viewBox="0 0 512 512" xmlns="http://www.w3.org/2000/svg" version="1.1">
  <g style="fill: var(--icon-fill, #fff); touch-action: none;">
    <path d="M167.32,153.09l13.98,18.35-60.45,19.39,134.82,51.62,135.59-51.62-61.37-20.32,14.49-17.57,4,.47c22.08,8.47,46.83,13.28,68.75,21.69,6.01,2.31,9.16,4.12,12.6,9.55,7.84,12.39,24.67,43.09,29.51,56.31,3.25,8.86.95,14.26-7.19,18.97-48.14,18.27-95.34,43.61-143.42,61.45-8.55,3.17-16.87,6.64-23.96-1.82-10.16-12.12-17.87-35.62-27.46-49.11l-2.05-1.18-27.7,50.29c-4.17,4.91-11.38,7.34-17.51,4.59l-151.09-64.85c-12.42-8.38-6.81-16.57-1.68-26.97,7-14.18,16.18-32.51,24.32-45.82,5.35-8.75,9-9.09,18.13-12.32,22.22-7.86,45.3-13.82,67.7-21.11Z"/>
    <path d="M290.96,55.42c27.58-.97,58.1,22.99,53.47,52.59-3.92,25.07-57,76.53-77.78,92.02-12.56,9.36-13.99,6.07-24.87-2.77-21.02-17.08-71.63-63.98-74.3-90.89-2.21-22.23,14.34-42.88,35.28-48.68,19.29-5.34,37.75.92,52.82,13.17,11.08-8.14,21-14.94,35.38-15.45Z"/>
    <path d="M425.86,294.19v100.13c0,1.95-6.37,8.26-8.97,8.56l-150.68,53.73v-124.58c10.59,10.8,21.47,15.81,36.96,13.43,41.54-15.33,81.47-34.99,122.69-51.26Z"/>
    <path d="M245.9,332.02v124.58l-150.68-53.73c-2.6-.31-8.97-6.61-8.97-8.56v-100.13l121.76,51.27c15.01,2.55,27.61-2.83,37.89-13.43Z"/>
  </g>
</svg>