<?xml version="1.0" encoding="UTF-8"?>
<svg width="512" height="512" viewBox="0 0 512 512" xmlns="http://www.w3.org/2000/svg" version="1.1">
  <g style="fill: var(--icon-fill, #fff); touch-action: none;">
    <path d="M494.66,255.12v9.27l-6.94,12.07c-29.87,25.27-57.16,63.23-87.21,87.15-24.82,19.75-53.47-10.21-33.85-33.85l70.49-70.46-70.94-70.94c-18.55-24.73,10.18-53.14,35.27-32.49,30.9,25.43,60.36,63.34,89.65,91.2l3.53,8.06Z"/>
    <path d="M19.81,256.05v-9.27c1.64-4.61,3.36-7.83,6.47-11.61,25.18-30.63,62.31-58.11,88.57-88.57,22.28-17.97,50.99,8.39,34.8,32.02l-72.27,72.47,73.04,74.22c13.98,23.63-12.35,47.14-34.62,31.84l-89.97-89.95-6.02-11.14Z"/>
    <path d="M323.77,69.86c17.04-2.73,30.04,10.16,28.06,27.14-46.98,108.79-96.9,216.57-145.43,324.78-14.72,22.36-47.47,10.13-43.69-16.8L308.41,80.47c3.09-5.06,9.44-9.66,15.36-10.61Z"/>
  </g>
</svg>
