<?xml version="1.0" encoding="UTF-8"?>
<svg width="512" height="512" viewBox="0 0 512 512" xmlns="http://www.w3.org/2000/svg" version="1.1">
  <g style="fill: var(--icon-fill, #fff); touch-action: none;">
    <path d="M252.05,87.89c1.43-.3,2.78-.32,4.15.25,51.86,45.71,101.12,94.72,152.6,140.9,2.62,1.57,5.98,1.55,8.76.36,12.24-7.18,28.62-29.61,42.33-31.75,24.6-3.84,40.67,26.5,21.95,44.07-22,17.63-41.49,40.39-63.06,58.18-3.41,2.82-7.57,6.98-12.25,4.53l-59.63-32.78c-2.42-.21-22.1,19.61-24.2,23.24l37.27,62.82c2.38,3.96.43,7.18-1.83,10.49-20.69,22.15-38.58,48.75-59.16,70.74-8.85,9.45-15.95,15.05-29.63,10.36-14.15-4.85-20.55-21.31-15.31-35.09l29.92-48.76-33.1-38.13-136.62,96.23c-24.35,12.91-49.11-13.88-33.22-37.07l182.72-183.98-.35-2.19c-7.57-6.06-14.55-25.09-25.78-22.91-5.94,1.16-20.94,17.44-27.34,21.76-24.58,16.63-51.57-10.45-35.46-34.5,24.24-21.64,48.06-54.4,73.13-74.09,1.32-1.03,2.26-2.32,4.09-2.7Z"/>
    <path d="M394.55,61c77.35-1.1,77.51,116.59,1.61,117.17-76.88.59-77.97-116.08-1.61-117.17Z"/>
    <path d="M154.16,282.1l-23.52,24.11c-1.11,1.07-2.48.83-3.84.97-24.32,2.41-53.62-1.38-78.3-.72-10.52-2.74-12.35-16.55-3.54-22.43.7-.47,3.39-1.93,3.84-1.93h105.37Z"/>
    <path d="M30.71,222.64l67.09-.14c12.62,1.94,13.94,22.68-3.89,24.85-12.52,1.52-45.8,1.43-58.32-.17-15.23-1.94-18.77-17.66-4.88-24.54Z"/>
    <path d="M213.82,222.44l-23.52,24.11c-2.73,1.57-18.99,1.21-23.03.79-10.66-1.12-18.27-10.05-11.62-20.04.74-1.11,4.78-4.86,5.73-4.86h52.44Z"/>
    <path d="M94.5,341.76l-23.52,24.11c-10.03,2.33-26.73,2.66-27.14-11.27-.14-4.52,5.48-12.84,9.77-12.84h40.9Z"/>
  </g>
</svg>