<?xml version="1.0" encoding="UTF-8"?>
<svg width="512" height="512" viewBox="0 0 512 512" xmlns="http://www.w3.org/2000/svg" version="1.1">
  <g style="fill: var(--icon-fill, #fff); touch-action: none;">
    <path d="M260.41,50c11.56,3.13,20.03,11.37,20.96,23.7l-.04,366.14c-1.58,11.36-10.07,19.32-20.91,22.14h-8.85c-12.64-3.4-20.54-12.15-21.71-25.36l-.05-359.7c.08-13.5,8.96-23.68,21.76-26.92h8.85Z"/>
    <path d="M58.44,286.57v-61.15c7.72-29.73,49.35-27.2,51.53,4.39.75,10.83,1.41,52.18-1.48,60.55-8.58,24.86-44.49,21.41-50.06-3.79Z"/>
    <path d="M425.19,118.61c15.61-1.43,27.99,11.45,28.37,26.7l-.05,222.91c-2.88,32.17-46.56,33.72-51.52,2.46l.03-230.17c1.62-11.46,11.61-20.85,23.17-21.91Z"/>
    <path d="M339.91,170.09c14.26-1.11,26.35,10.35,27.55,24.31,3.42,39.73-2.55,84.42-.12,124.66-4.69,30.8-48.74,29.84-51.44-1.49-3.42-39.73,2.55-84.42.12-124.66,1.6-12.09,11.74-21.87,23.89-22.82Z"/>
    <path d="M164.45,136.29c17.01-2.86,30.3,8.25,31.62,25.13l-.04,189.91c-2.8,31.34-45.19,33.24-51.49,3.23v-197.14c1.05-9.26,10.7-19.59,19.91-21.13Z"/>
  </g>
</svg>