<?xml version="1.0" encoding="UTF-8"?>
<svg width="512" height="512" viewBox="0 0 512 512" xmlns="http://www.w3.org/2000/svg" version="1.1">
  <g style="fill: var(--icon-fill, #fff); touch-action: none;">
    <path d="M312.86,366.3c.47,11.54.42,23.18.86,34.73.67,17.3,2.42,34.89,2.78,52.19.09,4.45.71,20.06-.51,23-1.01,2.43-3.83,3.44-6.23,3.68-4.7.46-31.59.51-34.52-.73-3.9-1.66-4.41-7.99-5.36-11.77-5.19-20.79-8.63-42.25-12.9-63.25-2.39-.22-1.46-.04-1.78,1.35-4.75,20.28-7.8,41.67-13.07,61.75-.85,3.22-1.68,9.76-4.98,11.24-1.9.85-31.86.97-35.62.5-1.37-.17-3.83-1.09-4.65-2.1-2.95-3.65-.18-23.35-1.21-29.06l2.74-81.52h-29.29c-2.53,0-7.21-4.61-6.78-7.64,2.16-41.87-2.8-86.48-.02-128.02,1.46-21.81,12.2-43.64,28.45-58.06,4.64-4.12,16.38-13.5,22.44-12.6,6.76,1,39.98,41.01,43.2,40.45l41.07-40.08c6.26-2.02,14.53,4.8,19.4,8.63,17.52,13.79,30.43,37.45,32.05,59.87,3.05,42.24-2.37,88.09-.01,130.72.31,3.49-3.71,6.74-6.78,6.74h-29.29Z"/>
    <path d="M247.78,32.23c44.5-5.03,79.18,34.82,66.43,78.15-13.49,45.87-73.54,57.93-104.54,21.64-30.67-35.91-8.96-94.47,38.11-99.79Z"/>
    <path d="M183.1,452.81c-19.68-.55-39.43-2.57-58.88-5.56-17.23-2.65-62.26-10.38-72.18-25.14-11.99-17.84,16.97-27.97,29.44-31.72,20.63-6.21,56.42-12.85,77.79-13.32,3.32-.07,8.49,2.64,12.6,2.76,3.14.09,13.84-2.99,13.89,1.25l-2.66,71.73Z"/>
    <path d="M329.08,452.81l-2.66-71.73,1.45-2.02c4.29-.89,8.19.89,12.44.77,4.51-.13,9.38-2.89,13.51-2.74,23.47.85,78.14,10.12,97.85,22.07,8.72,5.29,15.17,12.97,8.47,22.95-10.06,14.98-54.75,22.48-72.18,25.14-19.45,2.97-39.2,5.03-58.88,5.56Z"/>
    <path d="M362.43,250.05c1.52-26.38-3.5-52.68-19.83-73.88,30.84,2.69,65.62,4.94,94.84,15.54,39.57,14.36,29.87,34.35-4.54,45.47-22.53,7.28-47.12,9.52-70.47,12.87Z"/>
    <path d="M169.58,176.17c-16.38,21.31-22.25,47.18-20.73,73.88-27.28-5.03-64.19-6.45-88.23-21.24-25.98-15.99-3.47-30.78,14.78-37.34,29.05-10.44,63.58-12.63,94.18-15.3Z"/>
    <path d="M148.85,277.99v72.09c-25.77-4.03-53.37-5.62-77.73-15.53-20.72-8.43-33.34-23.3-7.89-37.2,24.15-13.19,58.7-15.27,85.62-19.36Z"/>
    <path d="M363.32,350.08v-72.09c24.55,3.13,51.06,5.82,74.36,14.4,31.66,11.67,35.46,29.47,1.8,42.39-24,9.21-50.93,11.36-76.16,15.3Z"/>
  </g>
</svg>