<?xml version="1.0" encoding="UTF-8"?>
<svg width="512" height="512" viewBox="0 0 512 512" xmlns="http://www.w3.org/2000/svg" version="1.1">
  <g style="fill: var(--icon-fill, #fff); touch-action: none;">
    <path d="M60.02,139.89v-49c2.72-6.57,7.16-9.28,14.18-9.94,53.67.7,107.68-1.49,161.16,1.12,6.19,2.39,7.98,7.58,8.44,13.76.75,10.06,1.14,32.37-.23,41.95-.92,6.39-4.85,10.63-11.24,11.73l-159.67.33c-6.77-.69-10.07-3.84-12.64-9.94Z"/>
    <path d="M452.02,90.88v49c-2.57,6.1-5.87,9.26-12.64,9.94l-159.67-.33c-6.39-1.1-10.33-5.33-11.24-11.73-1.37-9.57-.98-31.89-.23-41.95.8-10.72,5.32-14.15,15.7-14.93,53.16.82,106.71-1.51,159.66,1.18,4.23,1.54,6.64,4.86,8.43,8.8Z"/>
    <path d="M60.02,326.71v-49c3.07-6.78,6.66-9.4,14.14-9.98l158.17.37c6.39,1.1,10.33,5.33,11.24,11.73,1.37,9.57.98,31.89.23,41.95-.75,10.04-4.93,14.14-14.94,14.93-53.42-.81-107.22,1.51-160.42-1.18-4.23-1.54-6.64-4.86-8.43-8.8Z"/>
    <path d="M452.02,277.7v49c-2.72,6.57-7.16,9.28-14.18,9.94l-154.67.04c-10-.78-14.19-4.88-14.94-14.93-.75-10.06-1.14-32.37.23-41.95.92-6.39,4.85-10.63,11.24-11.73l158.17-.37c7.48.58,11.07,3.2,14.14,9.98Z"/>
    <path d="M175.45,361.36l158.32-.23c6.57-.35,13.17,4.62,14.06,11.2,1.31,9.66.96,34.27.09,44.37-.83,9.75-6.67,12.72-15.69,13.4-48.88,3.68-102.31-2.85-151.66,0-8.15-.13-15.21-3.15-16.34-11.99-1.22-9.58-1.13-35.36-.09-45.09.63-5.87,5.45-10.91,11.3-11.67Z"/>
    <path d="M176.99,174.56l155.24-.25c7.85.08,14.52,3.7,15.57,11.99,1.26,9.91.99,33.34.11,43.58-.74,8.62-5.68,12.67-14.16,13.4h-154.72c-7.6-.2-13.87-4.04-14.81-11.98-1.18-10-1.1-34.19-.07-44.31.74-7.28,5.63-11.76,12.84-12.43Z"/>
    <path d="M73.63,174.56c11.93-1.49,39.67-1.34,51.83-.2,6.24.58,12.59,3.37,13.43,10.31,1.24,10.33,1.04,36.96.02,47.53-.67,6.95-6.11,10.4-12.68,11.05-12.61,1.27-38.57,1.13-51.31.04-7.9-.68-13.31-4.5-14.13-12.67-.99-9.89-1.15-34.64.08-44.31.91-7.16,5.9-10.88,12.76-11.74Z"/>
    <path d="M385.24,174.56c11.92-1.49,39.67-1.34,51.83-.2,7.82.73,13.33,4.4,14.17,12.63,1.07,10.56.95,32.21.04,42.89-.7,8.13-5.31,12.55-13.43,13.36-12.6,1.27-38.58,1.13-51.31.04-6.11-.52-12.56-3.48-13.39-10.35-1.81-15,1.34-33.58.07-48.97,1.56-6.05,6.12-8.66,12.03-9.4Z"/>
    <path d="M72.09,361.36c17.29.9,37.16-1.9,54.15-.19,6.57.66,12.01,4.11,12.68,11.05,1.05,10.88,1.12,35.95-.04,46.75-.47,4.42-3.33,8.5-7.63,9.98-6.77,2.32-46.57,1.87-55.52,1.11-8.15-.69-14.04-3.82-14.93-12.63-1.05-10.39-1.04-33.22,0-43.62.65-6.49,4.78-11.49,11.29-12.44Z"/>
    <path d="M384.46,361.36c11.16-1.6,42.58-1.35,54.15-.19,7.25.73,11.91,5.4,12.63,12.63,1.07,10.61.95,32.17.04,42.89-.79,9.29-6.23,12.62-14.97,13.36-8.95.76-48.75,1.21-55.52-1.11-4.3-1.47-7.16-5.55-7.63-9.98-1.61-15.04,1.17-32.85.05-48.19,1.3-5.42,5.85-8.65,11.25-9.42Z"/>
  </g>
</svg>